<svg viewBox="0 0 256 256" xmlns="http://www.w3.org/2000/svg"><path d="m128 24a104 104 0 1 0 104 104 104.11791 104.11791 0 0 0 -104-104zm0 192a88 88 0 1 1 88-88 88.09957 88.09957 0 0 1 -88 88zm26.30273-93.7832-34.30566 45.77734h32.00293a8 8 0 0 1 0 16h-47.68262c-.10644.00391-.21289.00684-.31836.00684a8.00343 8.00343 0 0 1 -6.30175-12.93164l43.67285-58.27534a16.00416 16.00416 0 1 0 -28.11621-15.01954 8 8 0 1 1 -14.73633-6.23246 32.00411 32.00411 0 1 1 56.01269 30.35547c-.07327.10839-.14843.21483-.22754.31933z"/></svg>